<?xml version="1.0" standalone="no"?>
<svg width="100" height="100" viewBox="0 0 100 100" xmlns="http://www.w3.org/2000/svg" xmlns:xlink="http://www.w3.org/1999/xlink" version="1.1"><path d="M 43.75 10.040037630655192 C 42.5125 10.06205832751555 40.375 10.677507430275028 39 11.407702303454034 C 37.625 12.13789717663304 35.901812846091225 14.032380242838205 35.17069521353605 15.617664672798842 C 34.439577580980874 17.20294910275948 34.09753806274311 19.85 34.4106073952299 21.5 C 34.72367672771669 23.15 36.145139404508626 25.625 37.569413343656414 27 C 39.58883624421155 28.949559289082227 41.07724726204155 29.45781440584103 44.32950116196256 29.30840082627322 C 47.1833275200036 29.17729162485748 49.218997804882775 28.38801405211992 50.7773921042409 26.80840082627322 C 52.0299577615734 25.53878037182295 53.323753808374725 23.15 53.65249443046608 21.5 C 54.053562093814705 19.486979399396088 53.63330886320237 17.43789676774289 52.375102326225175 15.271655316492968 C 51.34379604680133 13.496065740564102 49.4875 11.5835657405641 48.25 11.021655316492968 C 47.0125 10.459744892421837 44.9875 10.018016933794836 43.75 10.040037630655192 Z M 51 30 C 49.00513764723851 30 47.49162162839088 30.753853235428885 46.48266044057003 32.25 C 45.320549784399816 33.97324576930247 45.20349328868925 35.14381072640809 45.98266044057003 37.25 C 46.54219719825651 38.7625 47.45 39.775 48 39.5 C 48.55555555555556 39.22222222222222 49 40.333333333333336 49 42 C 49 43.65 48.51030763086859 46.2375 47.91179473526353 47.75 C 47.31328183965846 49.2625 45.51328183965846 51.9625 43.91179473526353 53.75 C 42.310307630868586 55.5375 41 56.55 41 56 C 41 55.39301768751188 39.133165984318566 55.225886513635146 36.25 55.57474897647785 C 33.53582789261833 55.903163216625714 30.64280930837123 56.985496517801835 29.5 58.10005241653167 C 27.69915035205375 59.85638007604705 27.5 61.36745836796629 27.5 73.27530344005382 L 27.5 86.5 L 30.25 86.75 C 32.406287793265015 86.94602616302409 33.094491336063456 86.51423546721684 33.437671941433564 84.75 C 33.678391509222024 83.5125 34.15802290493787 78.675 34.50351948746879 74 C 34.849016069999706 69.325 35.3270636963546 65.1625 35.56584754603523 64.75 C 35.80463139571585 64.3375 41.4 64 48 64 C 59.91242978360707 64 60.0154067181445 63.97993182540995 62.11122714262087 61.25 C 63.92348043619424 58.889431373007056 64.14661560227277 57.57952584561968 63.68691351318154 52 C 63.39236608854844 48.425 62.28210008495555 43.475 61.21965572741957 41 C 60.15721136988359 38.525 58.09815250313129 35.0375 56.643969356858896 33.25 C 54.72656627867965 30.8931043015242 53.175596029362275 30 51 30 Z M 51.75 30.983016763661013 C 52.4375 30.992357543647454 53.77629014533925 32.2375 54.72508921186501 33.75 C 55.86797170565351 35.57189236145099 56.44480660797153 38.52496212047056 56.43426163485525 42.5 C 56.421475784591145 47.31975995209332 55.81390688351674 49.58188671058112 53.34555657615797 54 C 51.57075580461715 57.17672530168777 48.94791704320056 60.2392237676448 47.13638415316774 61.25 C 44.10697699481032 62.940310328143646 43.931783232164165 62.931783232164165 42 61 C 40.9 59.9 40.030456126543264 58.4375 40.067680281207245 57.75 C 40.104904435871234 57.0625 40.667404435871234 57.52400439904765 41.317680281207245 58.775565331216995 C 41.967956126543264 60.02712626338635 43.0625 61.26462626338635 43.75 61.525565331216995 C 44.4375 61.78650439904765 46.41125675069752 60.7625 48.136126112661145 59.25 C 49.86099547462478 57.7375 52.05015415097983 54.925 53.000923171227925 53 C 53.95169219147601 51.075 55.02874675145511 47.925 55.39437774895924 46 C 55.76000874646337 44.075 55.60289078628972 40.475 55.04522672635112 38 C 54.487562666412515 35.525 53.68675135573591 33.12789704435286 53.26564603595865 32.67310454300636 C 52.84454071618139 32.218312041659864 51.4875 32.10581204165987 50.25 32.42310454300636 C 48.542556113532015 32.860889707973 47.96387008130097 33.783692163990686 47.85016790882032 36.25 L 47.700335817640635 39.5 L 47.27840489890829 36.5 C 46.981503343827136 34.38897986447759 47.39631085806324 33.124559138087996 48.67823699008797 32.23301676366101 C 49.680206645539585 31.536175983674568 51.0625 30.973675983674568 51.75 30.983016763661013 Z M 72 40 C 71.39682539682539 40 71 44.166666666666664 71 50.5 L 71 61 L 68.25 61.25 C 66.2295918367347 61.433673469387756 65.43367346938776 62.0969387755102 65.25 63.75 C 65.00396825396825 65.96428571428571 64.77777777777777 66 51 66 C 39.22222222222222 66 37 66.23809523809524 37 67.5 C 37 68.325 38.19762341306806 70.2375 39.661385362373466 71.75 C 41.9039968738536 74.06728247391817 42.4153903137685 75.68013870749591 42.911385362373466 82 L 43.5 89.5 L 56 89.77986519648007 L 68.5 90.05973039296016 L 70.75326660246571 81.27986519648007 C 72.63932405843099 73.93083237538795 73.00600085500795 69.85177869138859 73.00326660246571 56.25 C 73.00122331972067 46.085511068310474 72.6255070111809 40 72 40 Z " fill="#000000"></path></svg>
