<?xml version="1.0" standalone="no"?>
<svg width="100" height="100" viewBox="0 0 100 100" xmlns="http://www.w3.org/2000/svg" xmlns:xlink="http://www.w3.org/1999/xlink" version="1.1"><path d="M 67.25 38.33217005544449 C 66.30827491711463 38.08191975704809 66 40.58950930376294 66 48.5 L 66 59 L 63.5 59 C 61.5 59 61 59.5 61 61.5 L 61 64 L 46.75 64.25 L 32.5 64.5 L 32.80663398776285 66.5 C 32.97528268103241 67.6 34.10028268103241 69.34788365991147 35.30663398776285 70.38418591091438 C 37.01240101514164 71.8495055075335 37.65696766815205 73.85026180595415 38.20608750025359 79.38418591091438 C 38.59443562539306 83.29788365991148 38.93193562539306 86.8375 38.95608750025359 87.25 C 38.98023937511412 87.6625 44.625 88 51.5 88 L 64 88 L 64.99411876126464 83.75 C 65.5408840799602 81.4125 66.68885759501661 77.25 67.5451710169456 74.5 C 68.73921130541228 70.66541010663296 69.03193464308286 65.90638103205335 68.80105225568096 54.08217005544449 C 68.58076208171991 42.80041954038683 68.16466751122145 38.57523018177706 67.25 38.33217005544449 Z " fill="#000000" transform="matrix(1 0 0 1 0.25 0)"></path></svg>
